<svg xmlns="http://www.w3.org/2000/svg" width="144" height="30" viewBox="0 0 144 30" fill="none"><g clip-path="url(#clip0_1577_175)"><path d="M6.69108 23.6101V29.3377L0 25.5665V19.8415L6.69108 23.6101Z" fill="#FFCB47"></path><path d="M6.69108 13.6077V21.1584L0 17.3871V9.83636L6.69108 13.6077Z" fill="#FFCB47"></path><path d="M22.8183 5.74945V21.4741L8.86766 29.3377V13.6131L22.8183 5.74945Z" fill="#35286B"></path><path d="M21.7174 3.91551L7.78065 11.7683L1.05613 7.98067L14.6835 0L21.7174 3.91551Z" fill="#35286B"></path></g><path d="M41.3916 8.47425V10.043H38.2711V20.1973H36.3481V10.043H33.2108V8.47425H41.3916ZM51.3512 15.3226C51.3512 15.6712 51.3287 15.986 51.2837 16.2671H44.1824C44.2386 17.0093 44.5142 17.6053 45.0089 18.0551C45.5037 18.5049 46.111 18.7298 46.8307 18.7298C47.8652 18.7298 48.5961 18.2969 49.0235 17.431H51.0982C50.8171 18.2857 50.3054 18.9885 49.5632 19.5395C48.8323 20.0793 47.9214 20.3491 46.8307 20.3491C45.9423 20.3491 45.1439 20.1523 44.4354 19.7588C43.7382 19.3539 43.1872 18.7917 42.7824 18.072C42.3888 17.3411 42.192 16.4977 42.192 15.5418C42.192 14.586 42.3832 13.7482 42.7655 13.0285C43.1591 12.2976 43.7045 11.7353 44.4017 11.3418C45.1101 10.9482 45.9198 10.7514 46.8307 10.7514C47.7078 10.7514 48.4893 10.9426 49.1753 11.3249C49.8612 11.7072 50.3954 12.247 50.7777 12.9442C51.16 13.6302 51.3512 14.4229 51.3512 15.3226ZM49.3439 14.7153C49.3327 14.0069 49.0797 13.439 48.5849 13.0117C48.0901 12.5844 47.4772 12.3707 46.7463 12.3707C46.0828 12.3707 45.515 12.5844 45.0427 13.0117C44.5704 13.4277 44.2892 13.9956 44.1993 14.7153H49.3439ZM52.0965 15.5418C52.0965 14.586 52.2877 13.7482 52.67 13.0285C53.0636 12.2976 53.6034 11.7353 54.2894 11.3418C54.9753 10.9482 55.7625 10.7514 56.6508 10.7514C57.7753 10.7514 58.7031 11.0213 59.434 11.561C60.1762 12.0896 60.6766 12.8486 60.9352 13.8382H58.8605C58.6918 13.3771 58.4219 13.0173 58.0509 12.7587C57.6798 12.5 57.2131 12.3707 56.6508 12.3707C55.8637 12.3707 55.2339 12.6518 54.7616 13.2141C54.3006 13.7651 54.0701 14.541 54.0701 15.5418C54.0701 16.5427 54.3006 17.3242 54.7616 17.8864C55.2339 18.4487 55.8637 18.7298 56.6508 18.7298C57.7641 18.7298 58.5007 18.2407 58.8605 17.2623H60.9352C60.6654 18.2069 60.1593 18.9604 59.4171 19.5226C58.675 20.0736 57.7529 20.3491 56.6508 20.3491C55.7625 20.3491 54.9753 20.1523 54.2894 19.7588C53.6034 19.3539 53.0636 18.7917 52.67 18.072C52.2877 17.3411 52.0965 16.4977 52.0965 15.5418ZM67.1528 10.7514C67.8613 10.7514 68.491 10.9032 69.042 11.2068C69.6043 11.5104 70.0428 11.9603 70.3577 12.5562C70.6838 13.1522 70.8469 13.8719 70.8469 14.7153V20.1973H68.9408V15.0021C68.9408 14.1699 68.7328 13.5346 68.3167 13.096C67.9006 12.6462 67.3328 12.4213 66.6131 12.4213C65.8934 12.4213 65.3199 12.6462 64.8926 13.096C64.4765 13.5346 64.2685 14.1699 64.2685 15.0021V20.1973H62.3455V7.71521H64.2685V11.9827C64.5946 11.5892 65.005 11.2855 65.4998 11.0719C66.0058 10.8582 66.5568 10.7514 67.1528 10.7514ZM85.1408 8.47425V20.1973H83.2179V12.1683L79.6419 20.1973H78.3094L74.7166 12.1683V20.1973H72.7936V8.47425H74.8684L78.9841 17.6672L83.083 8.47425H85.1408ZM86.5212 15.5081C86.5212 14.5747 86.7124 13.7482 87.0947 13.0285C87.4883 12.3089 88.0168 11.7522 88.6803 11.3586C89.355 10.9538 90.0972 10.7514 90.9068 10.7514C91.6378 10.7514 92.2731 10.8976 92.8129 11.19C93.3639 11.4711 93.8024 11.8253 94.1286 12.2526V10.9032H96.0683V20.1973H94.1286V18.8142C93.8024 19.2527 93.3583 19.6182 92.796 19.9106C92.2338 20.2029 91.5928 20.3491 90.8731 20.3491C90.0747 20.3491 89.3437 20.1467 88.6803 19.7419C88.0168 19.3258 87.4883 18.7523 87.0947 18.0214C86.7124 17.2792 86.5212 16.4414 86.5212 15.5081ZM94.1286 15.5418C94.1286 14.9009 93.9936 14.3442 93.7237 13.8719C93.4651 13.3996 93.1221 13.0398 92.6948 12.7924C92.2675 12.545 91.8064 12.4213 91.3116 12.4213C90.8169 12.4213 90.3558 12.545 89.9285 12.7924C89.5012 13.0285 89.1526 13.3828 88.8827 13.8551C88.6241 14.3161 88.4947 14.8671 88.4947 15.5081C88.4947 16.1491 88.6241 16.7113 88.8827 17.1949C89.1526 17.6784 89.5012 18.0495 89.9285 18.3081C90.3671 18.5555 90.8281 18.6792 91.3116 18.6792C91.8064 18.6792 92.2675 18.5555 92.6948 18.3081C93.1221 18.0607 93.4651 17.7009 93.7237 17.2286C93.9936 16.7451 94.1286 16.1828 94.1286 15.5418ZM100.331 12.4719V17.6166C100.331 17.9652 100.41 18.2182 100.568 18.3756C100.736 18.5218 101.017 18.5949 101.411 18.5949H102.592V20.1973H101.074C100.208 20.1973 99.5442 19.9949 99.0832 19.5901C98.6221 19.1853 98.3916 18.5274 98.3916 17.6166V12.4719H97.2952V10.9032H98.3916V8.59233H100.331V10.9032H102.592V12.4719H100.331ZM103.217 15.5418C103.217 14.586 103.408 13.7482 103.79 13.0285C104.184 12.2976 104.724 11.7353 105.41 11.3418C106.096 10.9482 106.883 10.7514 107.771 10.7514C108.896 10.7514 109.823 11.0213 110.554 11.561C111.297 12.0896 111.797 12.8486 112.056 13.8382H109.981C109.812 13.3771 109.542 13.0173 109.171 12.7587C108.8 12.5 108.334 12.3707 107.771 12.3707C106.984 12.3707 106.354 12.6518 105.882 13.2141C105.421 13.7651 105.19 14.541 105.19 15.5418C105.19 16.5427 105.421 17.3242 105.882 17.8864C106.354 18.4487 106.984 18.7298 107.771 18.7298C108.885 18.7298 109.621 18.2407 109.981 17.2623H112.056C111.786 18.2069 111.28 18.9604 110.538 19.5226C109.795 20.0736 108.873 20.3491 107.771 20.3491C106.883 20.3491 106.096 20.1523 105.41 19.7588C104.724 19.3539 104.184 18.7917 103.79 18.072C103.408 17.3411 103.217 16.4977 103.217 15.5418ZM118.273 10.7514C118.982 10.7514 119.611 10.9032 120.162 11.2068C120.725 11.5104 121.163 11.9603 121.478 12.5562C121.804 13.1522 121.967 13.8719 121.967 14.7153V20.1973H120.061V15.0021C120.061 14.1699 119.853 13.5346 119.437 13.096C119.021 12.6462 118.453 12.4213 117.733 12.4213C117.014 12.4213 116.44 12.6462 116.013 13.096C115.597 13.5346 115.389 14.1699 115.389 15.0021V20.1973H113.466V7.71521H115.389V11.9827C115.715 11.5892 116.125 11.2855 116.62 11.0719C117.126 10.8582 117.677 10.7514 118.273 10.7514ZM132.432 15.3226C132.432 15.6712 132.41 15.986 132.365 16.2671H125.263C125.32 17.0093 125.595 17.6053 126.09 18.0551C126.585 18.5049 127.192 18.7298 127.912 18.7298C128.946 18.7298 129.677 18.2969 130.105 17.431H132.179C131.898 18.2857 131.386 18.9885 130.644 19.5395C129.913 20.0793 129.002 20.3491 127.912 20.3491C127.023 20.3491 126.225 20.1523 125.517 19.7588C124.819 19.3539 124.268 18.7917 123.863 18.072C123.47 17.3411 123.273 16.4977 123.273 15.5418C123.273 14.586 123.464 13.7482 123.847 13.0285C124.24 12.2976 124.786 11.7353 125.483 11.3418C126.191 10.9482 127.001 10.7514 127.912 10.7514C128.789 10.7514 129.57 10.9426 130.256 11.3249C130.942 11.7072 131.476 12.247 131.859 12.9442C132.241 13.6302 132.432 14.4229 132.432 15.3226ZM130.425 14.7153C130.414 14.0069 130.161 13.439 129.666 13.0117C129.171 12.5844 128.558 12.3707 127.827 12.3707C127.164 12.3707 126.596 12.5844 126.124 13.0117C125.651 13.4277 125.37 13.9956 125.28 14.7153H130.425ZM133.178 15.5081C133.178 14.5747 133.369 13.7482 133.751 13.0285C134.145 12.3089 134.673 11.7522 135.337 11.3586C136.011 10.9538 136.759 10.7514 137.58 10.7514C138.187 10.7514 138.783 10.8863 139.368 11.1562C139.964 11.4149 140.436 11.7635 140.785 12.202V7.71521H142.725V20.1973H140.785V18.7973C140.47 19.2471 140.032 19.6182 139.469 19.9106C138.918 20.2029 138.283 20.3491 137.563 20.3491C136.754 20.3491 136.011 20.1467 135.337 19.7419C134.673 19.3258 134.145 18.7523 133.751 18.0214C133.369 17.2792 133.178 16.4414 133.178 15.5081ZM140.785 15.5418C140.785 14.9009 140.65 14.3442 140.38 13.8719C140.121 13.3996 139.779 13.0398 139.351 12.7924C138.924 12.545 138.463 12.4213 137.968 12.4213C137.473 12.4213 137.012 12.545 136.585 12.7924C136.158 13.0285 135.809 13.3828 135.539 13.8551C135.28 14.3161 135.151 14.8671 135.151 15.5081C135.151 16.1491 135.28 16.7113 135.539 17.1949C135.809 17.6784 136.158 18.0495 136.585 18.3081C137.023 18.5555 137.485 18.6792 137.968 18.6792C138.463 18.6792 138.924 18.5555 139.351 18.3081C139.779 18.0607 140.121 17.7009 140.38 17.2286C140.65 16.7451 140.785 16.1828 140.785 15.5418Z" fill="#35286B"></path><defs><clipPath id="clip0_1577_175"><rect width="22.8182" height="29.3377" fill="white"></rect></clipPath></defs></svg>